<mxfile host="app.diagrams.net" modified="2022-12-02T08:43:03.347Z" agent="5.0 (Windows NT 10.0; Win64; x64) AppleWebKit/537.36 (KHTML, like Gecko) Chrome/108.0.0.0 Safari/537.36" version="20.6.0" etag="oSjbqmuFFm6fVg40hGbS" type="github">
  <diagram id="uTsg7-uFlDPBhjWVkI7H" name="第 1 页">
    <mxGraphModel dx="870" dy="594" grid="1" gridSize="10" guides="1" tooltips="1" connect="1" arrows="1" fold="1" page="1" pageScale="1" pageWidth="827" pageHeight="1169" math="0" shadow="0">
      <root>
        <mxCell id="0" />
        <mxCell id="1" parent="0" />
        <mxCell id="RzR_Zg-Hlq1Db83ceBPq-1" value="" style="whiteSpace=wrap;html=1;aspect=fixed;" vertex="1" parent="1">
          <mxGeometry x="200" y="160" width="40" height="40" as="geometry" />
        </mxCell>
        <mxCell id="RzR_Zg-Hlq1Db83ceBPq-2" value="" style="whiteSpace=wrap;html=1;aspect=fixed;fillStyle=hatch;fillColor=#000000;" vertex="1" parent="1">
          <mxGeometry x="250" y="160" width="40" height="40" as="geometry" />
        </mxCell>
        <mxCell id="RzR_Zg-Hlq1Db83ceBPq-3" value="" style="whiteSpace=wrap;html=1;aspect=fixed;fillStyle=hatch;fillColor=#000000;" vertex="1" parent="1">
          <mxGeometry x="300" y="160" width="40" height="40" as="geometry" />
        </mxCell>
        <mxCell id="RzR_Zg-Hlq1Db83ceBPq-4" value="" style="whiteSpace=wrap;html=1;aspect=fixed;fillStyle=hatch;fillColor=#000000;" vertex="1" parent="1">
          <mxGeometry x="350" y="160" width="40" height="40" as="geometry" />
        </mxCell>
        <mxCell id="RzR_Zg-Hlq1Db83ceBPq-5" value="" style="whiteSpace=wrap;html=1;aspect=fixed;fillStyle=hatch;fillColor=#000000;" vertex="1" parent="1">
          <mxGeometry x="400" y="160" width="40" height="40" as="geometry" />
        </mxCell>
        <mxCell id="RzR_Zg-Hlq1Db83ceBPq-6" value="" style="whiteSpace=wrap;html=1;aspect=fixed;fillStyle=hatch;fillColor=#000000;" vertex="1" parent="1">
          <mxGeometry x="450" y="160" width="40" height="40" as="geometry" />
        </mxCell>
        <mxCell id="RzR_Zg-Hlq1Db83ceBPq-7" value="" style="whiteSpace=wrap;html=1;aspect=fixed;fillStyle=hatch;fillColor=#000000;" vertex="1" parent="1">
          <mxGeometry x="500" y="160" width="40" height="40" as="geometry" />
        </mxCell>
        <mxCell id="RzR_Zg-Hlq1Db83ceBPq-8" value="" style="whiteSpace=wrap;html=1;aspect=fixed;fillStyle=hatch;fillColor=#000000;" vertex="1" parent="1">
          <mxGeometry x="550" y="160" width="40" height="40" as="geometry" />
        </mxCell>
        <mxCell id="RzR_Zg-Hlq1Db83ceBPq-9" value="" style="whiteSpace=wrap;html=1;aspect=fixed;fillStyle=dashed;fillColor=#000000;" vertex="1" parent="1">
          <mxGeometry x="200" y="290" width="40" height="40" as="geometry" />
        </mxCell>
        <mxCell id="RzR_Zg-Hlq1Db83ceBPq-19" style="edgeStyle=orthogonalEdgeStyle;rounded=0;orthogonalLoop=1;jettySize=auto;html=1;exitX=0.5;exitY=0;exitDx=0;exitDy=0;entryX=0.5;entryY=1;entryDx=0;entryDy=0;dashed=1;curved=1;" edge="1" parent="1" source="RzR_Zg-Hlq1Db83ceBPq-10" target="RzR_Zg-Hlq1Db83ceBPq-1">
          <mxGeometry relative="1" as="geometry" />
        </mxCell>
        <mxCell id="RzR_Zg-Hlq1Db83ceBPq-10" value="" style="whiteSpace=wrap;html=1;aspect=fixed;dashed=1;fillStyle=hatch;fillColor=#000000;" vertex="1" parent="1">
          <mxGeometry x="250" y="290" width="40" height="40" as="geometry" />
        </mxCell>
        <mxCell id="RzR_Zg-Hlq1Db83ceBPq-11" value="" style="whiteSpace=wrap;html=1;aspect=fixed;fillStyle=dashed;fillColor=#000000;" vertex="1" parent="1">
          <mxGeometry x="300" y="290" width="40" height="40" as="geometry" />
        </mxCell>
        <mxCell id="RzR_Zg-Hlq1Db83ceBPq-12" value="" style="whiteSpace=wrap;html=1;aspect=fixed;fillStyle=hatch;fillColor=#000000;" vertex="1" parent="1">
          <mxGeometry x="350" y="290" width="40" height="40" as="geometry" />
        </mxCell>
        <mxCell id="RzR_Zg-Hlq1Db83ceBPq-13" value="" style="whiteSpace=wrap;html=1;aspect=fixed;fillStyle=hatch;fillColor=#000000;" vertex="1" parent="1">
          <mxGeometry x="400" y="290" width="40" height="40" as="geometry" />
        </mxCell>
        <mxCell id="RzR_Zg-Hlq1Db83ceBPq-14" value="" style="whiteSpace=wrap;html=1;aspect=fixed;fillStyle=dashed;fillColor=#000000;" vertex="1" parent="1">
          <mxGeometry x="450" y="290" width="40" height="40" as="geometry" />
        </mxCell>
        <mxCell id="RzR_Zg-Hlq1Db83ceBPq-15" value="" style="whiteSpace=wrap;html=1;aspect=fixed;fillStyle=dashed;fillColor=#000000;" vertex="1" parent="1">
          <mxGeometry x="500" y="290" width="40" height="40" as="geometry" />
        </mxCell>
        <mxCell id="RzR_Zg-Hlq1Db83ceBPq-25" style="edgeStyle=orthogonalEdgeStyle;curved=1;rounded=0;orthogonalLoop=1;jettySize=auto;html=1;exitX=1;exitY=0.5;exitDx=0;exitDy=0;entryX=0.5;entryY=0;entryDx=0;entryDy=0;" edge="1" parent="1" source="RzR_Zg-Hlq1Db83ceBPq-16" target="RzR_Zg-Hlq1Db83ceBPq-24">
          <mxGeometry relative="1" as="geometry" />
        </mxCell>
        <mxCell id="RzR_Zg-Hlq1Db83ceBPq-16" value="" style="whiteSpace=wrap;html=1;aspect=fixed;fillStyle=dashed;fillColor=#000000;" vertex="1" parent="1">
          <mxGeometry x="550" y="290" width="40" height="40" as="geometry" />
        </mxCell>
        <mxCell id="RzR_Zg-Hlq1Db83ceBPq-17" value="热队列" style="text;html=1;strokeColor=none;fillColor=none;align=center;verticalAlign=middle;whiteSpace=wrap;rounded=0;" vertex="1" parent="1">
          <mxGeometry x="90" y="170" width="60" height="30" as="geometry" />
        </mxCell>
        <mxCell id="RzR_Zg-Hlq1Db83ceBPq-18" value="冷队列" style="text;html=1;strokeColor=none;fillColor=none;align=center;verticalAlign=middle;whiteSpace=wrap;rounded=0;" vertex="1" parent="1">
          <mxGeometry x="90" y="300" width="60" height="30" as="geometry" />
        </mxCell>
        <mxCell id="RzR_Zg-Hlq1Db83ceBPq-20" value="" style="shape=flexArrow;endArrow=classic;html=1;rounded=0;curved=1;" edge="1" parent="1">
          <mxGeometry width="50" height="50" relative="1" as="geometry">
            <mxPoint x="200" y="120" as="sourcePoint" />
            <mxPoint x="590" y="120" as="targetPoint" />
          </mxGeometry>
        </mxCell>
        <mxCell id="RzR_Zg-Hlq1Db83ceBPq-21" value="热数据" style="text;html=1;strokeColor=none;fillColor=none;align=center;verticalAlign=middle;whiteSpace=wrap;rounded=0;dashed=1;" vertex="1" parent="1">
          <mxGeometry x="200" y="80" width="60" height="30" as="geometry" />
        </mxCell>
        <mxCell id="RzR_Zg-Hlq1Db83ceBPq-22" value="冷数据" style="text;html=1;strokeColor=none;fillColor=none;align=center;verticalAlign=middle;whiteSpace=wrap;rounded=0;dashed=1;" vertex="1" parent="1">
          <mxGeometry x="520" y="80" width="60" height="30" as="geometry" />
        </mxCell>
        <mxCell id="RzR_Zg-Hlq1Db83ceBPq-23" value="" style="whiteSpace=wrap;html=1;aspect=fixed;fillStyle=hatch;fillColor=#000000;" vertex="1" parent="1">
          <mxGeometry x="200" y="160" width="40" height="40" as="geometry" />
        </mxCell>
        <mxCell id="RzR_Zg-Hlq1Db83ceBPq-24" value="" style="whiteSpace=wrap;html=1;aspect=fixed;fillStyle=dashed;fillColor=#000000;" vertex="1" parent="1">
          <mxGeometry x="620" y="350" width="40" height="40" as="geometry" />
        </mxCell>
        <mxCell id="RzR_Zg-Hlq1Db83ceBPq-26" value="逐出缓存的块" style="text;html=1;strokeColor=none;fillColor=none;align=center;verticalAlign=middle;whiteSpace=wrap;rounded=0;dashed=1;fillStyle=dashed;" vertex="1" parent="1">
          <mxGeometry x="595" y="400" width="90" height="30" as="geometry" />
        </mxCell>
        <mxCell id="RzR_Zg-Hlq1Db83ceBPq-27" value="因为二次访问而提级" style="text;html=1;strokeColor=none;fillColor=none;align=center;verticalAlign=middle;whiteSpace=wrap;rounded=0;dashed=1;fillStyle=hatch;" vertex="1" parent="1">
          <mxGeometry x="270" y="230" width="110" height="30" as="geometry" />
        </mxCell>
        <mxCell id="RzR_Zg-Hlq1Db83ceBPq-28" value="尚未被二次访问的块" style="text;html=1;strokeColor=none;fillColor=none;align=center;verticalAlign=middle;whiteSpace=wrap;rounded=0;dashed=1;fillStyle=hatch;" vertex="1" parent="1">
          <mxGeometry x="335" y="390" width="120" height="30" as="geometry" />
        </mxCell>
        <mxCell id="RzR_Zg-Hlq1Db83ceBPq-29" value="" style="shape=crossbar;whiteSpace=wrap;html=1;rounded=1;fillStyle=hatch;fillColor=#000000;" vertex="1" parent="1">
          <mxGeometry x="350" y="360" width="90" height="20" as="geometry" />
        </mxCell>
        <mxCell id="RzR_Zg-Hlq1Db83ceBPq-30" value="" style="whiteSpace=wrap;html=1;aspect=fixed;fillStyle=hatch;fillColor=#000000;" vertex="1" parent="1">
          <mxGeometry x="680" y="110" width="20" height="20" as="geometry" />
        </mxCell>
        <mxCell id="RzR_Zg-Hlq1Db83ceBPq-31" value="" style="whiteSpace=wrap;html=1;aspect=fixed;fillStyle=dashed;fillColor=#000000;" vertex="1" parent="1">
          <mxGeometry x="680" y="150" width="20" height="20" as="geometry" />
        </mxCell>
        <mxCell id="RzR_Zg-Hlq1Db83ceBPq-32" value="数据库" style="text;html=1;strokeColor=none;fillColor=none;align=center;verticalAlign=middle;whiteSpace=wrap;rounded=0;fillStyle=hatch;" vertex="1" parent="1">
          <mxGeometry x="700" y="105" width="60" height="30" as="geometry" />
        </mxCell>
        <mxCell id="RzR_Zg-Hlq1Db83ceBPq-33" value="电影文件" style="text;html=1;strokeColor=none;fillColor=none;align=center;verticalAlign=middle;whiteSpace=wrap;rounded=0;fillStyle=hatch;" vertex="1" parent="1">
          <mxGeometry x="700" y="145" width="60" height="30" as="geometry" />
        </mxCell>
      </root>
    </mxGraphModel>
  </diagram>
</mxfile>
